<?xml version="1.0" encoding="utf-8"?>
<!-- Generator: Adobe Illustrator 19.1.0, SVG Export Plug-In . SVG Version: 6.00 Build 0)  -->
<svg version="1.1" id="Layer_1" xmlns="http://www.w3.org/2000/svg" xmlns:xlink="http://www.w3.org/1999/xlink" x="0px" y="0px"
	 viewBox="0 0 3674.2 643.1" style="enable-background:new 0 0 3674.2 643.1;" xml:space="preserve">
<style type="text/css">
	.st0{fill:#E592B6;}
	.st1{fill:#FFB5DF;}
	.st2{fill:#E390B4;}
	.st3{fill:#A26680;}
	.st4{fill:#C77D9D;}
	.st5{fill:#C47B9B;}
	.st6{fill:#E38FB4;}
	.st7{fill:#FFA2CB;}
	.st8{fill:#DF8CB0;}
	.st9{fill:#A56883;}
	.st10{fill:#4EF7D6;}
</style>
<g>
	<polygon class="st0" points="311.4,60.4 404.3,0 53.8,85 	"/>
	<polygon class="st1" points="61.7,335.5 53.8,85 311.4,60.4 	"/>
	<polygon class="st2" points="0,444.9 53.8,85 61.7,335.5 	"/>
	<polygon class="st3" points="225.1,643.1 61.7,335.5 0,444.9 	"/>
	<polygon class="st4" points="575.9,557.6 225.1,643.1 417.9,405.1 	"/>
	<polygon class="st5" points="629.1,198 575.9,557.6 417.9,405.1 	"/>
	<polygon class="st6" points="417.9,405.1 61.7,335.5 225.1,643.1 	"/>
	<polygon class="st7" points="311.6,60.4 61.7,335.5 417.9,405.1 	"/>
	<polygon class="st8" points="311.4,60.4 417.9,405.1 629.1,198 	"/>
	<polygon class="st9" points="311.4,60.4 629.1,198 404.3,0 	"/>
</g>
<g>
	<path class="st10" d="M895.5,121.6h255.7v73.7H982.9v77.9h142.7v73.1H982.9v89.2h174.2v73.7H895.5V121.6z"/>
	<path class="st10" d="M1233.2,92.5h173v305c0,36.3,23.2,48.2,47.6,48.2c13.7,0,27.9-2.4,46.4-9.5l19.6,64.2
		c-30.9,9.5-51.7,16.1-88.6,16.1c-74.3,0-112.4-47.6-112.4-122.5V161.4h-85.6V92.5z"/>
	<path class="st10" d="M1739.2,207.2c91,0,138.5,61.2,138.5,141.5c0,15.5-2.4,31.5-3.6,38.6h-198.6c5.9,44,42.2,62.4,85.6,62.4
		c26.8,0,49.9-7.1,76.1-20.2l28.5,52.3c-33.3,21.4-77.3,34.5-116.5,34.5c-91.6,0-163.5-57.1-163.5-154.6
		C1585.8,265.5,1660.7,207.2,1739.2,207.2z M1798.7,329.7c0-33.3-17.8-55.9-57.7-55.9c-31.5,0-58.9,17.8-66.6,55.9H1798.7z"/>
	<path class="st10" d="M1931.3,214.4h65.4l6.5,36.9h2.4c11.3-24.4,29.1-44,63-44c26.2,0,44.6,16.6,51.7,48.2
		c10.7-26.8,31.5-48.2,64.8-48.2c41,0,65.4,36.3,65.4,95.1v206.9h-82.1V308.9c0-18.4-4.8-27.4-16.6-27.4c-11.3,0-19.6,9.5-27.4,28.5
		v199.2h-67.2V308.9c0-18.4-5.9-27.4-17.2-27.4c-11.3,0-18.4,9.5-26.8,28.5v199.2h-82.1V214.4z"/>
	<path class="st10" d="M2452.8,207.2c91,0,138.5,61.2,138.5,141.5c0,15.5-2.4,31.5-3.6,38.6h-198.6c5.9,44,42.2,62.4,85.6,62.4
		c26.8,0,49.9-7.1,76.1-20.2l28.5,52.3c-33.3,21.4-77.3,34.5-116.5,34.5c-91.6,0-163.5-57.1-163.5-154.6
		C2299.3,265.5,2374.3,207.2,2452.8,207.2z M2512.2,329.7c0-33.3-17.8-55.9-57.7-55.9c-31.5,0-58.9,17.8-66.6,55.9H2512.2z"/>
	<path class="st10" d="M2666.2,214.4h71.4l6.5,39.2h2.4c25.6-25,57.7-46.4,101.7-46.4c66.6,0,96.3,45.8,96.3,120.1v181.9h-87.4
		V338.6c0-39.2-11.3-57.1-43.4-57.1c-23.8,0-39.2,10.7-60.1,30.9v196.8h-87.4V214.4z"/>
	<path class="st10" d="M3083.6,282.7h-74.3v-64.8l78.5-3.6l11.3-78.5h71.9v78.5h124.9v68.4H3171v103.5c0,44.6,19,61.8,61.8,61.8
		c22.6,0,41.6-4.8,58.9-10.7l15.5,63c-26.2,7.7-58.3,16.1-96.3,16.1c-93.9,0-127.2-52.3-127.2-129.6V282.7z"/>
	<path class="st10" d="M3407.7,416.5c33.9,21.4,67.8,35.1,107,35.1c39.8,0,56.5-9.5,56.5-25c0-17.8-31.5-27.9-79.1-41
		c-51.7-14.3-105.2-39.2-105.2-86.2c0-54.7,51.7-92.2,136.2-92.2c52.3,0,96.3,20.8,127.2,40.4L3611,300
		c-26.8-16.1-55.3-27.9-86.2-27.9c-36.9,0-51.1,8.3-51.1,23.2c0,17.8,33.9,26.8,75.5,37.5c58.3,15.5,108.8,37.5,108.8,88.6
		c0,53.5-50.5,95.1-145.1,95.1c-52.9,0-107-20.2-144.5-45.2L3407.7,416.5z"/>
</g>
</svg>
